<?xml version="1.0" encoding="UTF-8"?>
<svg version="1.1" xmlns="http://www.w3.org/2000/svg" width="874" height="272">
<path d="M0 0 C3.140625 1.50390625 3.140625 1.50390625 6.25 3.5625 C6.80864746 3.92456543 7.36729492 4.28663086 7.94287109 4.65966797 C9.6375308 5.76011508 11.31869363 6.87929638 13 8 C14.87175157 9.21335917 16.74654932 10.42203803 18.625 11.625 C19.9553125 12.47771484 19.9553125 12.47771484 21.3125 13.34765625 C24.92193121 15.56682689 28.64642425 17.5399461 32.3828125 19.53515625 C34.85112324 20.91667345 37.16753843 22.40213931 39.5 24 C44.46161244 27.39338851 49.70215462 30.17296663 55 33 C56.73124871 33.95456694 58.46059544 34.91259636 60.1875 35.875 C60.92355469 36.28492188 61.65960938 36.69484375 62.41796875 37.1171875 C62.94003906 37.40851562 63.46210938 37.69984375 64 38 C64 37.34 64 36.68 64 36 C64.78310547 35.58041016 64.78310547 35.58041016 65.58203125 35.15234375 C69.94172312 32.77780054 74.15720813 30.28035079 78.3125 27.5625 C83.10243068 24.46746787 88.0347694 21.95167881 93.16015625 19.46484375 C96.54491933 17.71892056 99.59913384 15.66895589 102.72265625 13.5 C106.11790491 11.26367842 109.70409657 9.42018366 113.296875 7.5234375 C116.64414611 5.63696968 119.68908321 3.43948336 122.734375 1.1015625 C126.21832942 -0.59236017 128.11822108 -0.55946666 132 0 C136.04014746 1.86556384 139.77890195 4.16505556 143.5625 6.5 C145.70681728 7.78811669 147.85134757 9.07587884 149.99609375 10.36328125 C151.02718262 10.98928223 152.05827148 11.6152832 153.12060547 12.26025391 C156.75805621 14.45802175 160.43057475 16.58736892 164.125 18.6875 C165.13820313 19.26886719 166.15140625 19.85023437 167.1953125 20.44921875 C170.0920329 22.05088727 173.02918492 23.54103888 176 25 C176 25.66 176 26.32 176 27 C177.28777344 27.38478516 177.28777344 27.38478516 178.6015625 27.77734375 C182.14966458 29.05384484 185.12621312 30.65258372 188.375 32.5625 C189.60240077 33.27944048 190.83028559 33.99555273 192.05859375 34.7109375 C193.01741455 35.27119629 193.01741455 35.27119629 193.99560547 35.84277344 C196.05963465 37.03442975 198.13771023 38.19692619 200.22265625 39.3515625 C200.92535645 39.74142334 201.62805664 40.13128418 202.35205078 40.53295898 C203.70169547 41.28014579 205.05284029 42.02463199 206.40576172 42.76586914 C207.66575203 43.46667206 208.91568243 44.18590227 210.15429688 44.92382812 C211.9904677 46.03195828 211.9904677 46.03195828 213.97070312 46.91992188 C217.2970904 48.72157254 218.71299496 50.07615381 219.85424805 53.74975586 C221.06488997 61.68103544 221.40321063 70.28085784 219 78 C214.92829469 83.38250869 208.63347496 85.63798582 202.50146484 87.98535156 C198.82974339 89.47468148 195.55330994 91.4906943 192.1875 93.5625 C188.18877807 95.90523477 184.44283498 97.6651572 180 99 C180 99.66 180 100.32 180 101 C178.9275 101.515625 177.855 102.03125 176.75 102.5625 C172.18082591 104.84708705 167.80526253 107.41785656 163.40625 110.01171875 C158.9516616 112.61193148 154.45286789 115.12953749 149.95019531 117.64526367 C144.72869333 120.5696316 139.57760607 123.59563433 134.453125 126.6875 C132.19481236 127.89576918 130.54021401 128.74026442 128 129 C126.16796875 128.3203125 126.16796875 128.3203125 124.1875 127.125 C123.40375 126.6609375 122.62 126.196875 121.8125 125.71875 C120.4203125 124.86796875 120.4203125 124.86796875 119 124 C117.83401336 123.30094783 116.66729951 122.60310768 115.5 121.90625 C113.58208425 120.76032393 111.66589329 119.61192627 109.75439453 118.45532227 C106.64651493 116.57498057 103.53043354 114.71952056 100.3671875 112.93359375 C99.27664063 112.31613281 98.18609375 111.69867188 97.0625 111.0625 C96.08410156 110.51722656 95.10570312 109.97195312 94.09765625 109.41015625 C93.40542969 108.94480469 92.71320313 108.47945313 92 108 C92 107.34 92 106.68 92 106 C91.41863281 105.87625 90.83726562 105.7525 90.23828125 105.625 C87.96332231 104.98975841 86.23772674 104.16462584 84.1875 103 C83.4140625 102.56558594 82.640625 102.13117188 81.84375 101.68359375 C79.60517594 100.35828411 77.41063039 98.99699539 75.21875 97.59765625 C74.55464111 97.18064453 73.89053223 96.76363281 73.20629883 96.33398438 C71.87187637 95.49353545 70.5458979 94.63951136 69.22924805 93.77148438 C67.16328483 92.42724936 67.16328483 92.42724936 64 91 C61.71290522 91.46642117 61.71290522 91.46642117 60 93 C59.42121094 93.35578125 58.84242188 93.7115625 58.24609375 94.078125 C57.35083984 94.65820312 57.35083984 94.65820312 56.4375 95.25 C52.32228436 97.85350377 48.07497395 100.15659116 43.7890625 102.46484375 C40.35404433 104.35554703 37.01383896 106.38277 33.6652832 108.42138672 C31.10701111 109.93661868 28.51734885 111.35400651 25.89453125 112.75390625 C21.96432182 114.88477445 18.12556945 117.11193988 14.32421875 119.46484375 C13.39416016 120.03654297 12.46410156 120.60824219 11.50585938 121.19726562 C9.60055739 122.37372028 7.70224628 123.56156091 5.81054688 124.75976562 C4.88693359 125.32244141 3.96332031 125.88511719 3.01171875 126.46484375 C2.19147217 126.976521 1.37122559 127.48819824 0.52612305 128.01538086 C-2.67537332 129.26324351 -4.71081267 128.80608253 -8 128 C-8 127.34 -8 126.68 -8 126 C-8.7216333 125.89042969 -9.4432666 125.78085938 -10.18676758 125.66796875 C-13.20453847 124.95143476 -15.33893907 123.87360616 -18.01171875 122.3125 C-18.93404297 121.77882813 -19.85636719 121.24515625 -20.80664062 120.6953125 C-21.75732422 120.13585937 -22.70800781 119.57640625 -23.6875 119 C-25.58710772 117.8956065 -27.48684102 116.79142895 -29.38671875 115.6875 C-30.22420654 115.19636719 -31.06169434 114.70523438 -31.92456055 114.19921875 C-33.26113422 113.42692727 -34.61931515 112.69034242 -36 112 C-36 111.34 -36 110.68 -36 110 C-36.7216333 109.89042969 -37.4432666 109.78085938 -38.18676758 109.66796875 C-41.20453847 108.95143476 -43.33893907 107.87360616 -46.01171875 106.3125 C-46.93404297 105.77882813 -47.85636719 105.24515625 -48.80664062 104.6953125 C-49.75732422 104.13585937 -50.70800781 103.57640625 -51.6875 103 C-53.58710772 101.8956065 -55.48684102 100.79142895 -57.38671875 99.6875 C-58.22420654 99.19636719 -59.06169434 98.70523438 -59.92456055 98.19921875 C-61.26113422 97.42692727 -62.61931515 96.69034242 -64 96 C-64 95.34 -64 94.68 -64 94 C-64.68835938 93.90976563 -65.37671875 93.81953125 -66.0859375 93.7265625 C-69.63549235 92.84155284 -72.50921956 91.2241189 -75.625 89.375 C-76.23239014 89.02107178 -76.83978027 88.66714355 -77.46557617 88.30249023 C-92.55206519 79.44793481 -92.55206519 79.44793481 -95 77 C-95.08748207 75.07332493 -95.10697334 73.14348139 -95.09765625 71.21484375 C-95.09443359 70.04501953 -95.09121094 68.87519531 -95.08789062 67.66992188 C-95.07951172 66.43822266 -95.07113281 65.20652344 -95.0625 63.9375 C-95.05798828 62.70193359 -95.05347656 61.46636719 -95.04882812 60.19335938 C-95.03699608 57.12885883 -95.02051173 54.06445279 -95 51 C-94.3922876 50.65855957 -93.7845752 50.31711914 -93.15844727 49.96533203 C-77.88768926 41.37961156 -77.88768926 41.37961156 -62.75 32.5625 C-57.4610371 29.42765931 -52.13683467 26.39579559 -46.72265625 23.48046875 C-38.40858623 18.95961863 -30.24211107 14.1762762 -22.125 9.3125 C-21.49045898 8.93383789 -20.85591797 8.55517578 -20.20214844 8.16503906 C-16.33302128 5.84356277 -12.55470892 3.43320723 -8.90625 0.77734375 C-5.81114742 -0.48479849 -3.30532531 -0.30943471 0 0 Z M125.31738281 26.08325195 C124.37217773 26.69128662 123.42697266 27.29932129 122.453125 27.92578125 C121.40060547 28.58400879 120.34808594 29.24223633 119.26367188 29.92041016 C118.18666016 30.6066748 117.10964844 31.29293945 116 32 C113.95837658 33.21072267 111.91156322 34.41274116 109.859375 35.60546875 C108.85132813 36.19650391 107.84328125 36.78753906 106.8046875 37.39648438 C105.79664063 37.98751953 104.78859375 38.57855469 103.75 39.1875 C102.21472656 40.09145508 102.21472656 40.09145508 100.6484375 41.01367188 C95.18211836 44.21406824 89.70641326 47.24918117 84 50 C85.98 50.99 85.98 50.99 88 52 C88.56050049 51.36263916 88.56050049 51.36263916 89.13232422 50.71240234 C91.51428377 48.52847237 94.04930722 47.15703479 96.8828125 45.6015625 C97.45651581 45.28472504 98.03021912 44.96788757 98.62130737 44.64144897 C100.45325822 43.63112968 102.28900325 42.62794459 104.125 41.625 C105.33619883 40.95880824 106.54713895 40.29214588 107.7578125 39.625 C110.09656829 38.33633034 112.43834032 37.05379908 114.78222656 35.77441406 C116.80075252 34.66131492 118.80968254 33.53043489 120.80371094 32.37402344 C121.6084082 31.90770508 122.41310547 31.44138672 123.2421875 30.9609375 C123.92909668 30.55407715 124.61600586 30.1472168 125.32373047 29.72802734 C125.87689941 29.48777832 126.43006836 29.2475293 127 29 C127.66 29.33 128.32 29.66 129 30 C129.99 29.67 130.98 29.34 132 29 C134.1875 29.4375 134.1875 29.4375 136 30 C132.95179174 26.4704957 129.92158025 24.22405792 125.31738281 26.08325195 Z M-25 37 C-25.33 37.66 -25.66 38.32 -26 39 C-20.33827615 37.32932739 -15.86529162 34.59072444 -10.90234375 31.4609375 C-7.85333097 29.92617198 -6.34101747 29.70375215 -3 30 C-1.68 30 -0.36 30 1 30 C3.40234375 31.20703125 3.40234375 31.20703125 5.9375 32.8125 C6.77152344 33.33457031 7.60554688 33.85664062 8.46484375 34.39453125 C10.2009477 35.49397458 11.92181841 36.61774161 13.62890625 37.76171875 C14.41136719 38.17035156 15.19382812 38.57898437 16 39 C16.99 38.67 17.98 38.34 19 38 C16.41593075 36.28067833 13.81860983 34.61343558 11.1640625 33.00390625 C8 31 8 31 5.3359375 28.77734375 C-5.15032357 21.17707096 -16.08292557 30.1401691 -25 37 Z M136 30 C138.79694266 33.01340418 141.49517461 35.04698384 145.09765625 37.015625 C146.54688477 37.80839844 146.54688477 37.80839844 148.02539062 38.6171875 C149.02763672 39.15601563 150.02988281 39.69484375 151.0625 40.25 C152.06861328 40.80429687 153.07472656 41.35859375 154.11132812 41.9296875 C159.26926381 44.9825801 159.26926381 44.9825801 165 46 C159.42511046 42.05111991 153.6255823 38.55461359 147.6875 35.1875 C146.99398437 34.79054932 146.30046875 34.39359863 145.5859375 33.98461914 C144.92207031 33.61199951 144.25820313 33.23937988 143.57421875 32.85546875 C142.98213623 32.52184326 142.39005371 32.18821777 141.7800293 31.84448242 C139.87787281 30.94206036 138.05354418 30.44389515 136 30 Z M19 39 C21.17424117 41.50037734 22.73045798 42.43628586 26 43 C24.18777466 40.9375006 24.18777466 40.9375006 22 39 C21.01 39 20.02 39 19 39 Z M28 44 C28.99 44.99 29.98 45.98 31 47 C31.66 46.67 32.32 46.34 33 46 C30.525 45.01 30.525 45.01 28 44 Z M33 47 C34.32 48.32 35.64 49.64 37 51 C37.99 50.67 38.98 50.34 40 50 C36.94419026 47.41222792 36.94419026 47.41222792 33 47 Z M165 47 C165.495 47.433125 165.99 47.86625 166.5 48.3125 C168 50 168 50 168 53 C165.375 54.82421875 165.375 54.82421875 162 56.6875 C160.88625 57.31011719 159.7725 57.93273437 158.625 58.57421875 C157.75875 59.04472656 156.8925 59.51523438 156 60 C156.99 60.495 156.99 60.495 158 61 C159.78559334 60.29182972 159.78559334 60.29182972 161.6953125 59.12890625 C162.76845703 58.51499023 162.76845703 58.51499023 163.86328125 57.88867188 C164.60964844 57.45103516 165.35601563 57.01339844 166.125 56.5625 C167.25615234 55.9118457 167.25615234 55.9118457 168.41015625 55.24804688 C170.27757134 54.17251034 172.13932697 53.08715861 174 52 C171.03866935 48.8361852 169.37426366 47.4860293 165 47 Z M-33.625 41.625 C-34.5015625 42.16640625 -35.378125 42.7078125 -36.28125 43.265625 C-40.22860056 45.78376243 -44.13035649 48.36415587 -48 51 C-46.96503126 54.00140933 -46.1696205 54.90518264 -43.3515625 56.48046875 C-42.24554688 56.98191406 -41.13953125 57.48335937 -40 58 C-38.77139836 58.67048075 -37.55029077 59.35482683 -36.3359375 60.05078125 C-35.69438721 60.41671387 -35.05283691 60.78264648 -34.3918457 61.15966797 C-33.72628662 61.54010254 -33.06072754 61.92053711 -32.375 62.3125 C-26.5203009 65.63735744 -20.61418945 68.77786027 -14.55078125 71.7109375 C-12 73 -12 73 -9.48046875 74.6015625 C-5.95837486 76.59073399 -5.95837486 76.59073399 -2 77 C1.95804262 75.25669339 5.56089131 72.87646285 9.23046875 70.60351562 C14.14008656 67.68662504 17.27048301 66.38121217 23 67 C18.75707385 62.48278614 13.89726932 59.75308319 8.5625 56.6875 C7.62083984 56.12482422 6.67917969 55.56214844 5.70898438 54.98242188 C4.79568359 54.45583984 3.88238281 53.92925781 2.94140625 53.38671875 C1.69919312 52.66295044 1.69919312 52.66295044 0.43188477 51.92456055 C-2.52577305 50.80011018 -4.01275268 51.06627201 -7 52 C-9.60533651 53.3522797 -9.60533651 53.3522797 -12.125 55 C-14.80872417 56.69670099 -16.97770778 57.99256926 -20 59 C-20 59.66 -20 60.32 -20 61 C-23.25 61.6875 -23.25 61.6875 -27 62 C-28.87890625 60.70703125 -28.87890625 60.70703125 -31 59 C-33.85493412 57.449371 -36.74097096 55.97280418 -39.63671875 54.5 C-42 53 -42 53 -43 50 C-42.02417969 49.45730469 -41.04835938 48.91460937 -40.04296875 48.35546875 C-38.75766633 47.6330725 -37.47251813 46.91040182 -36.1875 46.1875 C-35.54490234 45.83107422 -34.90230469 45.47464844 -34.24023438 45.10742188 C-31.13461565 43.3534714 -28.32540905 41.74035193 -26 39 C-29.51445381 39 -30.67267065 39.79736755 -33.625 41.625 Z M40 51 C41.32 52.32 42.64 53.64 44 55 C44.99 54.67 45.98 54.34 47 54 C43.94419026 51.41222792 43.94419026 51.41222792 40 51 Z M122.25 53.6875 C121.37730469 54.23277344 120.50460937 54.77804688 119.60546875 55.33984375 C118.31576172 56.16162109 118.31576172 56.16162109 117 57 C115.52113123 57.91714719 114.04199425 58.83386215 112.5625 59.75 C110.34993037 61.13574298 108.17316493 62.55122338 106 64 C106.66 64 107.32 64 108 64 C108 64.66 108 65.32 108 66 C109.670625 66.804375 109.670625 66.804375 111.375 67.625 C115.6258033 69.73152597 119.60841797 72.17984668 123.60546875 74.73046875 C126.34831887 76.18467151 127.87223365 76.95955475 131 77 C133.95464516 75.75146546 136.60494564 74.08478367 139.3125 72.375 C140.03373047 71.93542969 140.75496094 71.49585937 141.49804688 71.04296875 C143.67559319 69.71105253 145.83894721 68.35848701 148 67 C149.51422173 66.05452542 151.0285397 65.10920496 152.54296875 64.1640625 C153.69543981 63.44291174 154.84783361 62.72163742 156 62 C154.00289825 60.72767371 154.00289825 60.72767371 151.67578125 61.6015625 C148.21637581 62.11668565 147.07611491 61.26963272 144.1875 59.375 C143.32253906 58.82328125 142.45757813 58.2715625 141.56640625 57.703125 C140.71949219 57.14109375 139.87257813 56.5790625 139 56 C137.5457545 55.03547478 136.08779905 54.07650293 134.625 53.125 C134.01914062 52.71507812 133.41328125 52.30515625 132.7890625 51.8828125 C128.58925134 49.8104166 125.82918786 51.42486054 122.25 53.6875 Z M88 52 C88 52.66 88 53.32 88 54 C88.66 53.67 89.32 53.34 90 53 C89.34 52.67 88.68 52.34 88 52 Z M47 55 C48.32 56.32 49.64 57.64 51 59 C51.99 58.67 52.98 58.34 54 58 C50.94419026 55.41222792 50.94419026 55.41222792 47 55 Z M96 57 C96 57.66 96 58.32 96 59 C96.66 58.67 97.32 58.34 98 58 C97.34 57.67 96.68 57.34 96 57 Z M56 60 C56 60.66 56 61.32 56 62 C58.475 62.495 58.475 62.495 61 63 C59.62514468 61.45833358 59.62514468 61.45833358 58 60 C57.34 60 56.68 60 56 60 Z M101 60 C101.33 60.66 101.66 61.32 102 62 C102.66 61.67 103.32 61.34 104 61 C103.01 60.67 102.02 60.34 101 60 Z M61 63 C62.485 63.99 62.485 63.99 64 65 C64 64.34 64 63.68 64 63 C63.01 63 62.02 63 61 63 Z M64 65 C64 65.66 64 66.32 64 67 C65.26418246 67.69965443 66.53665402 68.38434763 67.8125 69.0625 C68.52019531 69.44535156 69.22789062 69.82820313 69.95703125 70.22265625 C72.14697801 71.30263511 72.14697801 71.30263511 75 70 C69.798474 66.76340806 69.798474 66.76340806 64 65 Z M23 67 C24.37485532 68.54166642 24.37485532 68.54166642 26 70 C26.66 70 27.32 70 28 70 C28 69.34 28 68.68 28 68 C26.35 67.67 24.7 67.34 23 67 Z M75 71 C77.91512587 74.15633014 80.83135162 76.25852968 84.5625 78.375 C86.13837891 79.27025391 86.13837891 79.27025391 87.74609375 80.18359375 C88.81988281 80.78300781 89.89367187 81.38242188 91 82 C92.04285156 82.58910156 93.08570313 83.17820312 94.16015625 83.78515625 C98.81814698 86.7637398 98.81814698 86.7637398 104 88 C104 87.34 104 86.68 104 86 C103.30777344 85.67128906 102.61554688 85.34257813 101.90234375 85.00390625 C94.99170396 81.64418809 88.42292392 77.95640766 81.90209961 73.89672852 C78.69149765 71.72583545 78.69149765 71.72583545 75 71 Z M33 73 C33.33 73.66 33.66 74.32 34 75 C34.99 74.67 35.98 74.34 37 74 C35.68 73.67 34.36 73.34 33 73 Z M37 75 C36.67 75.99 36.34 76.98 36 78 C34.41772461 79.16674805 34.41772461 79.16674805 32.40234375 80.26171875 C31.68369141 80.65810547 30.96503906 81.05449219 30.22460938 81.46289062 C29.46986328 81.86701172 28.71511719 82.27113281 27.9375 82.6875 C27.17888672 83.10322266 26.42027344 83.51894531 25.63867188 83.94726562 C23.76366859 84.97321082 21.88240657 85.98770244 20 87 C20 87.66 20 88.32 20 89 C25.6184311 87.35558114 30.50593484 85.04059877 35.0625 81.3125 C37.62116275 79.57921233 39.96469121 79.34492145 43 79 C41.71034824 77.62437146 40.37310707 76.29233607 39 75 C38.34 75 37.68 75 37 75 Z M-36 84 C-35.67 84.66 -35.34 85.32 -35 86 C-34.34 85.67 -33.68 85.34 -33 85 C-33.99 84.67 -34.98 84.34 -36 84 Z M-29 88 C-28.67 88.66 -28.34 89.32 -28 90 C-27.34 89.67 -26.68 89.34 -26 89 C-26.99 88.67 -27.98 88.34 -29 88 Z M104 88 C106.3932786 90.61371215 108.98397046 92.40088665 112 94.25 C112.86625 94.79140625 113.7325 95.3328125 114.625 95.890625 C117.06305249 97.36120807 117.06305249 97.36120807 120 96 C117.71125827 94.66141476 115.41930344 93.32898986 113.125 92 C112.47402344 91.6184375 111.82304687 91.236875 111.15234375 90.84375 C107.79649799 88.72448844 107.79649799 88.72448844 104 88 Z M-26 90 C-24.02 90.99 -24.02 90.99 -22 92 C-22.33 91.34 -22.66 90.68 -23 90 C-23.99 90 -24.98 90 -26 90 Z M18 89 C15.59292898 90.05223363 15.59292898 90.05223363 12.9375 91.625 C11.95394531 92.17542969 10.97039062 92.72585937 9.95703125 93.29296875 C8.10969358 94.3593975 6.2718645 95.44267962 4.44921875 96.55078125 C3.68222656 97.00839844 2.91523438 97.46601562 2.125 97.9375 C1.44695312 98.35902344 0.76890625 98.78054687 0.0703125 99.21484375 C-2.70651289 100.26794168 -4.18614631 99.88150046 -7 99 C-9.38180432 97.75766353 -11.6293195 96.37233164 -13.9140625 94.9609375 C-16.1155639 93.65843475 -16.1155639 93.65843475 -19 95 C-18.08476562 95.50789063 -17.16953125 96.01578125 -16.2265625 96.5390625 C-15.02549473 97.2334298 -13.82500367 97.92879534 -12.625 98.625 C-12.02171875 98.95628906 -11.4184375 99.28757812 -10.796875 99.62890625 C-7.52987819 101.55280437 -6.10718897 102.75186641 -4.5859375 106.2734375 C-4.39257812 107.17320313 -4.19921875 108.07296875 -4 109 C-3.67 109 -3.34 109 -3 109 C-2.93554688 108.0821875 -2.87109375 107.164375 -2.8046875 106.21875 C-2 103 -2 103 0.1171875 101.09375 C1.02726562 100.5678125 1.93734375 100.041875 2.875 99.5 C3.85855469 98.92121094 4.84210938 98.34242187 5.85546875 97.74609375 C6.89316406 97.16988281 7.93085938 96.59367187 9 96 C10.04800781 95.41347656 11.09601563 94.82695313 12.17578125 94.22265625 C14.77211469 92.79147375 17.37844548 91.38430248 20 90 C19.34 89.67 18.68 89.34 18 89 Z M-22 92 C-21.67 92.66 -21.34 93.32 -21 94 C-20.34 93.67 -19.68 93.34 -19 93 C-19.99 92.67 -20.98 92.34 -22 92 Z M120 97 C122.52788007 99.79872437 124.20411134 101.45773019 128 102 C128 103.98 128 105.96 128 108 C128.66 107.34 129.32 106.68 130 106 C130 104.68 130 103.36 130 102 C131.32 101.34 132.64 100.68 134 100 C133.01 100 132.02 100 131 100 C127.18474509 99.38131001 123.64579136 98.27178768 120 97 Z " fill="#FEFEFE" transform="translate(387,11)"/>
<path d="M0 0 C0.77109604 -0.00287018 1.54219208 -0.00574036 2.33665466 -0.00869751 C3.97159558 -0.01073932 5.60656086 -0.00520125 7.24145508 0.00732422 C9.71297837 0.02322446 12.18282796 0.00756064 14.65429688 -0.01171875 C24.11129789 -0.02440998 33.04418148 -0.02783735 41.18359375 5.3984375 C41.18359375 6.0584375 41.18359375 6.7184375 41.18359375 7.3984375 C42.10398437 7.74841797 42.10398437 7.74841797 43.04296875 8.10546875 C47.03640146 10.5175604 47.9090424 15.10658091 49.18359375 19.3984375 C50.03033215 25.21976399 48.18135037 29.69922378 46.05859375 35.04296875 C45.06751856 37.2921179 45.06751856 37.2921179 45.18359375 39.3984375 C46.17359375 39.3984375 47.16359375 39.3984375 48.18359375 39.3984375 C51.95979852 46.37767311 53.81994106 52.73258493 51.55859375 60.5625 C49.14710955 66.1390572 45.27771927 70.16183266 40.18359375 73.3984375 C31.64032171 76.25951991 22.09336061 75.70582265 13.19262695 75.65917969 C10.72648133 75.64835139 8.26104696 75.6591844 5.79492188 75.671875 C4.21744632 75.67055511 2.6399712 75.66799627 1.0625 75.6640625 C0.33019669 75.66811096 -0.40210663 75.67215942 -1.15660095 75.67633057 C-4.86731116 75.64217648 -7.66425651 75.45460902 -10.81640625 73.3984375 C-10.87029712 71.44040243 -10.90914842 69.48194841 -10.94140625 67.5234375 C-10.96460938 66.43289062 -10.9878125 65.34234375 -11.01171875 64.21875 C-10.81640625 61.3984375 -10.81640625 61.3984375 -8.81640625 59.3984375 C-6.98141479 59.1199646 -6.98141479 59.1199646 -4.73388672 59.07958984 C-3.8931662 59.05972015 -3.05244568 59.03985046 -2.18624878 59.01937866 C-1.27787262 59.00782745 -0.36949646 58.99627625 0.56640625 58.984375 C1.49581024 58.96500885 2.42521423 58.9456427 3.38278198 58.9256897 C6.35795855 58.86580065 9.33317363 58.8194714 12.30859375 58.7734375 C14.32293375 58.73526629 16.33725729 58.69621507 18.3515625 58.65625 C23.2954395 58.5600915 28.23939292 58.4760951 33.18359375 58.3984375 C33.38984375 57.1403125 33.59609375 55.8821875 33.80859375 54.5859375 C33.92460938 53.87824219 34.040625 53.17054688 34.16015625 52.44140625 C34.37937223 50.08087926 34.37937223 50.08087926 32.18359375 47.3984375 C29.17283325 47.09764773 26.3570691 46.9815423 23.34375 46.9921875 C22.46585312 46.98135132 21.58795624 46.97051514 20.68345642 46.95935059 C17.87092748 46.92499184 15.05880531 46.90947621 12.24609375 46.8984375 C8.54908565 46.88390101 4.85299106 46.85026797 1.15625 46.8046875 C-0.12353981 46.80921936 -0.12353981 46.80921936 -1.42918396 46.81384277 C-7.38590344 46.73800189 -7.38590344 46.73800189 -9.54029846 45.03869629 C-11.39137056 42.65940098 -11.21516955 40.81031026 -11.19140625 37.8359375 C-11.19914062 36.86527344 -11.206875 35.89460938 -11.21484375 34.89453125 C-11.08335938 34.07082031 -10.951875 33.24710938 -10.81640625 32.3984375 C-7.237228 30.01231867 -4.61667802 30.08629062 -0.48046875 30.0546875 C0.23589752 30.0400647 0.95226379 30.02544189 1.69033813 30.01037598 C3.97970007 29.96390791 6.26897677 29.92970328 8.55859375 29.8984375 C11.56672122 29.85716939 14.57425132 29.80342015 17.58203125 29.7421875 C18.26864838 29.7369104 18.9552655 29.7316333 19.66268921 29.72619629 C23.56612587 29.6457168 26.74273914 29.31404779 30.18359375 27.3984375 C31.34808256 24.49492626 31.34808256 24.49492626 31.18359375 21.3984375 C29.73205186 19.05984223 28.67789358 18.52670553 26.0300293 17.83959961 C22.58814583 17.30615048 19.24848818 17.21636618 15.765625 17.15234375 C14.33267537 17.11944073 12.89973281 17.08622856 11.46679688 17.05273438 C9.22180488 17.0051365 6.97684853 16.96060343 4.73168945 16.92163086 C2.55522296 16.8820415 0.37929609 16.83051177 -1.796875 16.77734375 C-3.74436646 16.73975952 -3.74436646 16.73975952 -5.73120117 16.70141602 C-8.81640625 16.3984375 -8.81640625 16.3984375 -10.81640625 14.3984375 C-11.1171875 11.90234375 -11.1171875 11.90234375 -11.12890625 8.9609375 C-11.14566406 7.99285156 -11.16242187 7.02476562 -11.1796875 6.02734375 C-10.81640625 3.3984375 -10.81640625 3.3984375 -9.78222656 1.7590332 C-6.74139221 -0.34560786 -3.56892001 -0.02926398 0 0 Z " fill="#01C952" transform="translate(69.81640625,180.6015625)"/>
<path d="M0 0 C1.04027344 -0.01933594 2.08054687 -0.03867188 3.15234375 -0.05859375 C6.83612188 0.56937917 7.83601592 1.46241499 10.0625 4.4375 C11.5546875 7.65234375 11.5546875 7.65234375 12.9375 11.375 C13.45280198 12.72898224 13.9710885 14.08183198 14.4921875 15.43359375 C14.75225586 16.10890137 15.01232422 16.78420898 15.28027344 17.47998047 C16.42850576 20.35342828 17.73886534 23.14123517 19.0625 25.9375 C21.56850494 31.26440055 23.7963585 36.65685741 25.953125 42.13061523 C27.26278955 45.45001173 28.6008751 48.74456272 30.0625 52 C30.51689453 53.01320313 30.51689453 53.01320313 30.98046875 54.046875 C31.87280779 56.01839663 32.7732115 57.98626599 33.67578125 59.953125 C34.24273415 61.21850522 34.80913945 62.48413092 35.375 63.75 C36.17357422 65.50763672 36.17357422 65.50763672 36.98828125 67.30078125 C38.0625 70.4375 38.0625 70.4375 37.91796875 72.79296875 C37.0625 74.4375 37.0625 74.4375 34.0625 75.4375 C31.88585411 75.53710078 29.70625612 75.57579767 27.52734375 75.58276367 C26.53905075 75.58780159 26.53905075 75.58780159 25.53079224 75.59294128 C23.3538423 75.60243697 21.17696936 75.60439353 19 75.60546875 C17.48689746 75.6086817 15.97379524 75.61204581 14.46069336 75.61555481 C11.28986897 75.62154219 8.11907183 75.62339505 4.94824219 75.62280273 C0.88267454 75.622701 -3.18271892 75.63636665 -7.24824524 75.65357494 C-10.37260747 75.66468433 -13.49692741 75.66672229 -16.62130737 75.66619301 C-18.12043866 75.66737421 -19.619571 75.67180384 -21.11868286 75.67952538 C-23.21336143 75.68930634 -25.30765925 75.68645523 -27.40234375 75.68041992 C-28.594646 75.68184494 -29.78694824 75.68326996 -31.01538086 75.68473816 C-33.9375 75.4375 -33.9375 75.4375 -36.9375 73.4375 C-36.47516681 67.77391848 -35.35249781 64.05236191 -31.9375 59.4375 C-27.2320405 58.2057639 -22.45259139 58.29153056 -17.6171875 58.3046875 C-16.44556564 58.30325241 -16.44556564 58.30325241 -15.25027466 58.30178833 C-13.60809244 58.30111101 -11.96590747 58.30293392 -10.32373047 58.30712891 C-7.81341552 58.31249804 -5.30327829 58.30716131 -2.79296875 58.30078125 C-1.19270794 58.30144183 0.40755276 58.30272257 2.0078125 58.3046875 C2.75580109 58.30266327 3.50378967 58.30063904 4.27444458 58.29855347 C7.67496399 58.31384274 10.81235938 58.3696724 14.0625 59.4375 C13.65128906 58.49003906 13.24007812 57.54257813 12.81640625 56.56640625 C10.80262131 51.86599807 8.89967656 47.12242917 7 42.375 C6.64873047 41.50294922 6.29746094 40.63089844 5.93554688 39.73242188 C4.17560982 35.3375696 2.49367567 30.95348956 1.0625 26.4375 C-1.40083053 28.90083053 -2.04680717 31.04389147 -3.25 34.3125 C-4.98257295 38.91225121 -6.72258798 43.50440981 -8.5625 48.0625 C-8.94664062 49.02414063 -9.33078125 49.98578125 -9.7265625 50.9765625 C-10.94355259 53.44980043 -11.67141057 54.87892265 -13.9375 56.4375 C-16.75 56.8359375 -16.75 56.8359375 -19.9375 56.8125 C-20.989375 56.82023437 -22.04125 56.82796875 -23.125 56.8359375 C-25.9375 56.4375 -25.9375 56.4375 -27.8125 55.0703125 C-28.9375 53.4375 -28.9375 53.4375 -28.9375 50.9375 C-28.06627964 47.88822873 -27.02717625 45.33647015 -25.69140625 42.4765625 C-22.93389297 36.48196841 -20.38883495 30.41253226 -17.875 24.3125 C-16.23933783 20.34983912 -14.59483636 16.39114578 -12.9375 12.4375 C-12.57672363 11.56641602 -12.21594727 10.69533203 -11.84423828 9.79785156 C-11.33546143 8.60240723 -11.33546143 8.60240723 -10.81640625 7.3828125 C-10.52451416 6.68945801 -10.23262207 5.99610352 -9.93188477 5.28173828 C-7.4363157 0.65332465 -5.16218603 0.00638095 0 0 Z " fill="#00C951" transform="translate(644.9375,180.5625)"/>
<path d="M0 0 C2.79332157 -0.30487241 5.36072956 -0.41993986 8.15625 -0.3984375 C8.97315308 -0.40130768 9.79005615 -0.40417786 10.63171387 -0.40713501 C12.36678761 -0.40917982 14.10188419 -0.40362089 15.83691406 -0.39111328 C18.46213194 -0.37522912 21.08577125 -0.39086083 23.7109375 -0.41015625 C35.47099972 -0.42560212 45.73374279 -0.05761496 55 8 C55 8.99 55 9.98 55 11 C55.66 11 56.32 11 57 11 C60.82701152 17.63348663 60.80059978 25.76873315 59.3125 33.125 C58.14754703 37.36576404 56.0926992 39.9073008 53 43 C52.34 43 51.68 43 51 43 C51 43.66 51 44.32 51 45 C50.01 45.66 49.02 46.32 48 47 C49.22589645 49.02288124 50.45531525 51.04345216 51.6875 53.0625 C52.05037109 53.6601416 52.41324219 54.2577832 52.78710938 54.87353516 C54.71207769 58.01485779 56.70354671 60.99616086 59 63.875 C61.38347408 67.59917824 61.16377218 69.67027311 61 74 C46.81602618 75.36449154 46.81602618 75.36449154 42.84765625 72.3828125 C41.31509999 69.99694929 40.1720431 67.58146201 39 65 C37.75125982 63.04818762 36.47994166 61.11065319 35.1875 59.1875 C33.04868544 55.91553865 31.96339463 53.85357852 31 50 C25.39 50 19.78 50 14 50 C14.01160156 51.64871094 14.02320313 53.29742187 14.03515625 54.99609375 C14.04453238 57.14322804 14.05363277 59.29036355 14.0625 61.4375 C14.07087891 62.52611328 14.07925781 63.61472656 14.08789062 64.73632812 C14.09272461 66.28803711 14.09272461 66.28803711 14.09765625 67.87109375 C14.10551147 69.30859985 14.10551147 69.30859985 14.11352539 70.77514648 C14 73 14 73 13 74 C10.66839945 74.09909302 8.33370058 74.12970504 6 74.125 C4.72125 74.12757813 3.4425 74.13015625 2.125 74.1328125 C-1 74 -1 74 -2 73 C-2.11340974 70.28445608 -2.1641802 67.59529957 -2.16796875 64.87890625 C-2.17129715 64.06381088 -2.17462555 63.24871552 -2.17805481 62.40892029 C-2.18312742 60.68139207 -2.18546303 58.95385402 -2.18530273 57.22631836 C-2.18748792 54.57714755 -2.20563621 51.92839384 -2.22460938 49.27929688 C-2.22754344 47.6041681 -2.22952815 45.92903733 -2.23046875 44.25390625 C-2.23765427 43.45803604 -2.24483978 42.66216583 -2.25224304 41.84217834 C-2.22882227 36.22882227 -2.22882227 36.22882227 0 34 C2.56752953 33.79079389 5.03589438 33.69890523 7.60546875 33.69140625 C9.16211283 33.66622815 10.71875336 33.64083041 12.27539062 33.61523438 C14.72630749 33.58659588 17.17716224 33.56257962 19.62817383 33.54370117 C21.99594646 33.52189936 24.36296212 33.48243108 26.73046875 33.44140625 C27.45364792 33.44129044 28.17682709 33.44117462 28.92192078 33.4410553 C34.03723728 33.34270168 37.49614016 32.22299523 42 30 C42 26.37 42 22.74 42 19 C36.84316782 17.30848814 32.1673214 16.69592317 26.73046875 16.65625 C25.96825516 16.6416272 25.20604156 16.62700439 24.42073059 16.61193848 C21.18730718 16.55007184 17.95370869 16.50985526 14.7199707 16.46826172 C12.34826337 16.4346272 9.97696753 16.38953372 7.60546875 16.34375 C6.87216843 16.3384729 6.1388681 16.3331958 5.38334656 16.32775879 C0.2257116 16.2257116 0.2257116 16.2257116 -2 14 C-2.265625 11.50390625 -2.265625 11.50390625 -2.25 8.5625 C-2.25515625 7.59441406 -2.2603125 6.62632812 -2.265625 5.62890625 C-2 3 -2 3 0 0 Z " fill="#01C951" transform="translate(536,181)"/>
<path d="M0 0 C1.12664062 -0.00773438 2.25328125 -0.01546875 3.4140625 -0.0234375 C6.375 0.375 6.375 0.375 8.3359375 1.5859375 C9.375 3.375 9.375 3.375 9.44140625 5.6640625 C7.90455187 9.57093775 5.32339132 11.8922474 2.3125 14.75 C1.72629883 15.32218262 1.14009766 15.89436523 0.53613281 16.48388672 C-3.25168036 20.15391704 -7.13626408 23.68455449 -11.234375 27.0078125 C-12.89805034 28.43615347 -12.89805034 28.43615347 -13.625 31.375 C-12.965 31.375 -12.305 31.375 -11.625 31.375 C-10.1796875 33.39453125 -10.1796875 33.39453125 -8.5 36.1875 C-5.4101555 41.1876633 -2.10172629 45.93603408 1.38671875 50.6640625 C3.92845727 54.12961562 6.38282128 57.65231001 8.83203125 61.18359375 C9.86021728 62.64387822 10.93690333 64.0711865 12.05859375 65.4609375 C13.90421467 68.14448128 13.65739753 70.19802775 13.375 73.375 C11.31807533 75.43192467 7.37010033 74.74126605 4.5625 74.8125 C3.83740234 74.85826172 3.11230469 74.90402344 2.36523438 74.95117188 C0.23046875 74.99609375 0.23046875 74.99609375 -3.625 74.375 C-7.625 69.75291602 -7.625 69.75291602 -7.625 66.375 C-8.285 66.375 -8.945 66.375 -9.625 66.375 C-11.1328125 64.2578125 -11.1328125 64.2578125 -12.75 61.5 C-13.28882813 60.59507812 -13.82765625 59.69015625 -14.3828125 58.7578125 C-15.625 56.375 -15.625 56.375 -15.625 54.375 C-16.285 54.375 -16.945 54.375 -17.625 54.375 C-19.46859528 51.57782095 -21.10758814 48.68731321 -22.7734375 45.78125 C-23.38445312 44.9871875 -23.99546875 44.193125 -24.625 43.375 C-28.57923486 43.0323896 -28.57923486 43.0323896 -31.33300781 44.99731445 C-34.19836259 47.96979956 -34.2610222 49.34403995 -34.296875 53.41796875 C-34.32136719 54.57361328 -34.34585937 55.72925781 -34.37109375 56.91992188 C-34.37238281 58.12197266 -34.37367188 59.32402344 -34.375 60.5625 C-34.40799188 62.9518733 -34.44426424 65.34120436 -34.484375 67.73046875 C-34.49162598 69.31831177 -34.49162598 69.31831177 -34.49902344 70.93823242 C-34.625 73.375 -34.625 73.375 -35.625 74.375 C-37.95660055 74.47409302 -40.29129942 74.50470504 -42.625 74.5 C-43.90375 74.50257813 -45.1825 74.50515625 -46.5 74.5078125 C-49.625 74.375 -49.625 74.375 -50.625 73.375 C-50.96479857 68.76445045 -51.0246413 64.15177834 -51.08496094 59.5300293 C-51.11150602 57.97698014 -51.15236471 56.42410519 -51.20800781 54.87182617 C-51.66525472 41.96561909 -51.66525472 41.96561909 -49.12573242 38.08251953 C-47.35959192 36.5793917 -45.64400475 35.50036966 -43.625 34.375 C-42.2946875 33.01375 -42.2946875 33.01375 -40.9375 31.625 C-38.625 29.375 -38.625 29.375 -36.4375 28.3125 C-34.09639069 27.10158139 -33.58428874 25.77322186 -32.625 23.375 C-31.965 23.375 -31.305 23.375 -30.625 23.375 C-30.36847656 22.78074219 -30.11195313 22.18648437 -29.84765625 21.57421875 C-28.50790435 19.16437747 -27.1876757 17.92628012 -25.0625 16.1875 C-21.05351572 12.81266415 -17.42101571 9.17631808 -13.80078125 5.390625 C-9.32544081 1.24470818 -6.12709016 -0.04225579 0 0 Z " fill="#01C952" transform="translate(433.625,180.625)"/>
<path d="M0 0 C2.66021969 -0.30440801 5.08392329 -0.42011287 7.74609375 -0.3984375 C8.51301041 -0.40130768 9.27992706 -0.40417786 10.07008362 -0.40713501 C11.69329567 -0.40917786 13.31653221 -0.4036325 14.93969727 -0.39111328 C17.42455194 -0.37508353 19.90777472 -0.39094195 22.39257812 -0.41015625 C23.96875359 -0.40817343 25.54492805 -0.40432894 27.12109375 -0.3984375 C27.86491806 -0.40451019 28.60874237 -0.41058289 29.37510681 -0.4168396 C34.4989822 -0.34702585 34.4989822 -0.34702585 36.9675293 1.36279297 C38.48041286 3.76179915 38.3976718 5.68869729 38.375 8.5 C38.38660156 9.93859375 38.38660156 9.93859375 38.3984375 11.40625 C37.93019041 14.45444677 37.40805134 15.15162012 35 17 C32.82348633 17.34057617 32.82348633 17.34057617 30.33203125 17.29296875 C29.43935547 17.28330078 28.54667969 17.27363281 27.62695312 17.26367188 C26.23379883 17.2259668 26.23379883 17.2259668 24.8125 17.1875 C23.87212891 17.17396484 22.93175781 17.16042969 21.96289062 17.14648438 C19.64134962 17.11113096 17.32096347 17.06178674 15 17 C15.00888245 17.69491043 15.01776489 18.38982086 15.0269165 19.10578918 C15.10705206 25.65345969 15.16795867 32.20099345 15.20724869 38.74904346 C15.22812738 42.11554183 15.25644839 45.48163516 15.30175781 48.84790039 C15.35015726 52.71772055 15.37294261 56.58696418 15.390625 60.45703125 C15.41127014 61.66647903 15.43191528 62.87592682 15.45318604 64.12202454 C15.45348816 65.24296005 15.45379028 66.36389557 15.45410156 67.51879883 C15.46298401 68.50697098 15.47186646 69.49514313 15.48101807 70.51325989 C15 73 15 73 13.11248779 74.82206726 C10.66619674 76.18613021 9.2179282 76.34409232 6.4375 76.25 C5.67308594 76.23453125 4.90867187 76.2190625 4.12109375 76.203125 C2 76 2 76 -1 75 C-2.13652833 71.59041502 -2.13393633 68.96894777 -2.14526367 65.37304688 C-2.14862228 64.7044313 -2.1519809 64.03581573 -2.15544128 63.34693909 C-2.16493781 61.13752382 -2.16689358 58.92818441 -2.16796875 56.71875 C-2.17118165 55.18322722 -2.17454575 53.64770475 -2.17805481 52.11218262 C-2.18404241 48.89427989 -2.18589503 45.676404 -2.18530273 42.45849609 C-2.185201 38.33239534 -2.19886656 34.20646622 -2.21607494 30.08040619 C-2.22718389 26.90972093 -2.2292223 23.73907736 -2.22869301 20.56837463 C-2.22987428 19.04691474 -2.2343043 17.52545382 -2.24202538 16.00401306 C-2.25180542 13.87820328 -2.24895558 11.75276874 -2.24291992 9.62695312 C-2.24434494 8.41688599 -2.24576996 7.20681885 -2.24723816 5.96008301 C-2 3 -2 3 0 0 Z " fill="#02C752" transform="translate(480,181)"/>
<path d="M0 0 C4.78488522 1.88277438 8.38624195 4.74117813 12.1171875 8.2265625 C12.69339844 8.7525 13.26960938 9.2784375 13.86328125 9.8203125 C15.1171875 11.2265625 15.1171875 11.2265625 15.1171875 13.2265625 C15.7771875 13.2265625 16.4371875 13.2265625 17.1171875 13.2265625 C24.0238129 23.82861477 24.32852749 36.34208658 21.9296875 48.51953125 C20.641697 52.81076884 18.58022068 56.50381005 16.1171875 60.2265625 C15.4571875 60.2265625 14.7971875 60.2265625 14.1171875 60.2265625 C13.4571875 61.5465625 12.7971875 62.8665625 12.1171875 64.2265625 C11.4571875 64.2265625 10.7971875 64.2265625 10.1171875 64.2265625 C9.73046875 65.14888672 9.73046875 65.14888672 9.3359375 66.08984375 C7.25792503 69.73302587 3.97179104 70.88222969 0.1171875 72.2265625 C-3.21907166 72.91155515 -6.47461833 73.40817143 -9.8828125 73.2265625 C-12.8828125 71.2265625 -12.8828125 71.2265625 -13.3515625 69.01953125 C-13.43593315 61.98512797 -13.43593315 61.98512797 -10.6953125 58.2265625 C-8.07881216 56.36594004 -5.83387128 55.40698601 -2.8828125 54.2265625 C-0.21614583 51.89322917 -0.21614583 51.89322917 2.1171875 49.2265625 C2.65214844 48.68386719 3.18710937 48.14117187 3.73828125 47.58203125 C5.75352368 44.1395633 5.59153912 40.79018338 5.5546875 36.9140625 C5.57466797 36.17994141 5.59464844 35.44582031 5.61523438 34.68945312 C5.61027366 29.09873138 4.33071062 25.81149874 1.1171875 21.2265625 C0.1271875 20.5665625 -0.8628125 19.9065625 -1.8828125 19.2265625 C-1.8828125 18.5665625 -1.8828125 17.9065625 -1.8828125 17.2265625 C-2.6046875 17.1234375 -3.3265625 17.0203125 -4.0703125 16.9140625 C-7.16027936 16.15873727 -9.27839936 15.03518274 -11.8828125 13.2265625 C-13.1049022 10.7823831 -13.11922318 9.01626378 -13.1953125 6.2890625 C-13.23269531 5.41378906 -13.27007812 4.53851563 -13.30859375 3.63671875 C-12.8828125 1.2265625 -12.8828125 1.2265625 -11.21875 -0.64453125 C-7.23273477 -2.57088309 -4.09967283 -1.15271974 0 0 Z " fill="#00CA52" transform="translate(256.8828125,182.7734375)"/>
<path d="M0 0 C1.38226016 2.76452033 1.09525387 5.0461363 1.0625 8.125 C1.05347656 9.22070312 1.04445312 10.31640625 1.03515625 11.4453125 C1.02355469 12.28835937 1.01195312 13.13140625 1 14 C-0.10408203 14.54527344 -0.10408203 14.54527344 -1.23046875 15.1015625 C-8.47536272 18.83407062 -13.2665046 21.54244039 -16.3125 29.375 C-17.70667953 36.72612842 -17.5195599 43.28423198 -14 50 C-10.10540578 54.62923344 -5.50975163 56.79609935 0 59 C1.37252731 61.74505463 1.13229255 64.00327412 1.125 67.0625 C1.12886719 68.68865234 1.12886719 68.68865234 1.1328125 70.34765625 C1 73 1 73 0 74 C-5.90866947 74.49238912 -10.50098677 73.09486218 -16 71 C-16 70.34 -16 69.68 -16 69 C-16.57234375 68.91492188 -17.1446875 68.82984375 -17.734375 68.7421875 C-20.65560717 67.78523214 -22.09680721 66.30211716 -24.25 64.125 C-24.95640625 63.42632812 -25.6628125 62.72765625 -26.390625 62.0078125 C-28 60 -28 60 -28 57 C-28.66 57 -29.32 57 -30 57 C-30.48198463 55.75108386 -30.96045677 54.50081192 -31.4375 53.25 C-31.70433594 52.55390625 -31.97117188 51.8578125 -32.24609375 51.140625 C-35.38322146 42.23313284 -35.38525372 30.29710493 -32.1640625 21.37109375 C-27.07288006 11.00079932 -20.05314204 4.09352315 -9.25 0.0625 C-5.87715744 -0.93991824 -3.36718449 -1.3679187 0 0 Z " fill="#00CA52" transform="translate(239,182)"/>
<path d="M0 0 C2.8185945 4.22789175 2.91313732 8.03729718 2 13 C-0.67836504 15.92751528 -3.20925184 17.54814391 -6.625 19.5 C-10.13141779 21.71457966 -12.53610121 24.22020528 -13.59765625 28.29296875 C-14.83168715 36.59572035 -14.99347738 44.79042244 -10 51.8125 C-8.19037188 54.05412534 -8.19037188 54.05412534 -6 55 C-6 55.66 -6 56.32 -6 57 C-5.236875 57.103125 -4.47375 57.20625 -3.6875 57.3125 C-0.69213919 58.07875509 0.16414219 58.56801595 2 61 C2.43359375 63.59375 2.43359375 63.59375 2.4375 66.5 C2.45683594 67.4590625 2.47617187 68.418125 2.49609375 69.40625 C2 72 2 72 0.30078125 73.90234375 C-3.52610821 75.72807539 -6.29001729 74.3620146 -10.1796875 73.1484375 C-18.85620174 69.61534167 -25.22793043 62.67677765 -29.1484375 54.24609375 C-33.20114892 43.55660263 -33.09947098 30.78172655 -29.01171875 20.09375 C-24.46351662 10.68125447 -17.89765829 3.87187574 -7.9375 0.25 C-5.21387463 -0.10143553 -2.74184108 -0.23842096 0 0 Z " fill="#01C951" transform="translate(725,182)"/>
<path d="M0 0 C1.94336779 1.94336779 1.30633393 5.2920995 1.375 7.875 C1.42398438 9.13054687 1.47296875 10.38609375 1.5234375 11.6796875 C1 15 1 15 -1.3359375 16.9453125 C-4 18 -4 18 -7 18 C-7.33 18.99 -7.66 19.98 -8 21 C-9.33333333 22.33333333 -10.66666667 23.66666667 -12 25 C-15.58527646 30.43492438 -14.54215494 37.77501613 -14 44 C-12.6736253 48.50183335 -10.98313105 51.3445793 -7 54 C-7 54.66 -7 55.32 -7 56 C-5.865625 56.309375 -4.73125 56.61875 -3.5625 56.9375 C0 58 0 58 1 59 C1.09909302 61.33160055 1.12970504 63.66629942 1.125 66 C1.12886719 67.918125 1.12886719 67.918125 1.1328125 69.875 C1 73 1 73 0 74 C-7.19459603 75.11915938 -12.97825566 71.70307551 -19 68 C-21.36328125 65.984375 -21.36328125 65.984375 -23 64 C-23 63.01 -23 62.02 -23 61 C-23.99 60.67 -24.98 60.34 -26 60 C-27.1328125 58.29296875 -27.1328125 58.29296875 -28.125 56.1875 C-28.45757812 55.50042969 -28.79015625 54.81335938 -29.1328125 54.10546875 C-33.37594002 43.80346095 -32.48224342 29.37934332 -28.5 19.1875 C-27.7032067 17.44119469 -26.88486776 15.70337044 -26 14 C-25.34 14 -24.68 14 -24 14 C-23.63648438 13.13761719 -23.63648438 13.13761719 -23.265625 12.2578125 C-20.37802473 7.10647621 -15.13686885 3.02569705 -9.875 0.5 C-6.51484054 -0.08437556 -3.4033152 -0.20019501 0 0 Z " fill="#00CA52" transform="translate(326,182)"/>
<path d="M0 0 C1.43859375 0.02900391 1.43859375 0.02900391 2.90625 0.05859375 C3.8653125 0.05988281 4.824375 0.06117188 5.8125 0.0625 C8.89308165 0.57747675 9.59807388 0.98612865 11.40625 3.49609375 C11.77374268 6.46290588 11.77374268 6.46290588 11.76269531 10.13891602 C11.76576187 11.14424881 11.76576187 11.14424881 11.76889038 12.16989136 C11.77189757 14.38437214 11.75342529 16.59810777 11.734375 18.8125 C11.73131734 20.35041622 11.72944127 21.8883352 11.72869873 23.42625427 C11.7240962 26.64845384 11.70967151 29.87040342 11.6875 33.0925293 C11.65919391 37.2276622 11.64828605 41.36259836 11.6438179 45.49781895 C11.63966606 48.67276486 11.62985093 51.84767081 11.61794281 55.02259636 C11.61223668 56.54766456 11.60747911 58.07273661 11.60367584 59.59781075 C11.5968192 61.72616488 11.5831903 63.85436191 11.56738281 65.98266602 C11.56055481 67.19495377 11.55372681 68.40724152 11.54669189 69.65626526 C11.40625 72.49609375 11.40625 72.49609375 10.40625 74.49609375 C5.45625 74.49609375 0.50625 74.49609375 -4.59375 74.49609375 C-5.71047082 71.14593128 -5.73430329 68.59955473 -5.75488281 65.06860352 C-5.75984772 64.42110138 -5.76481262 63.77359924 -5.76992798 63.10647583 C-5.78452027 60.96680638 -5.79134594 58.82721101 -5.796875 56.6875 C-5.80262798 55.19921365 -5.8083857 53.71092731 -5.81414795 52.22264099 C-5.82464896 49.10309504 -5.8304978 45.9835748 -5.83398438 42.86401367 C-5.83947345 38.8679697 -5.86351373 34.87226572 -5.89195633 30.87632847 C-5.91058305 27.80253608 -5.91578827 24.72882568 -5.91732025 21.65498161 C-5.92034623 20.1817838 -5.92837296 18.70858741 -5.94150543 17.23544502 C-5.9585707 15.17435948 -5.95668539 13.11410614 -5.95019531 11.05297852 C-5.95384094 9.88066177 -5.95748657 8.70834503 -5.96124268 7.50050354 C-5.44347014 3.26749159 -4.33361987 0.82887007 0 0 Z " fill="#01C852" transform="translate(145.59375,180.50390625)"/>
<path d="M0 0 C0.90806396 0.00285004 1.81612793 0.00570007 2.75170898 0.00863647 C3.78287842 0.00248322 4.81404785 -0.00367004 5.87646484 -0.01000977 C7.5452771 0.01154678 7.5452771 0.01154678 9.24780273 0.03353882 C10.39063721 0.03445526 11.53347168 0.0353717 12.7109375 0.03631592 C15.12854156 0.04236117 17.54613782 0.05813459 19.96362305 0.08285522 C23.67060856 0.11933173 27.37659414 0.12387489 31.08374023 0.12338257 C33.43010307 0.13321448 35.77645911 0.1448718 38.12280273 0.15853882 C39.23534424 0.16076447 40.34788574 0.16299011 41.49414062 0.1652832 C42.52531006 0.17804291 43.55647949 0.19080261 44.61889648 0.20394897 C45.52696045 0.21157257 46.43502441 0.21919617 47.37060547 0.22705078 C49.68530273 0.49447632 49.68530273 0.49447632 52.68530273 2.49447632 C53.11889648 5.20932007 53.11889648 5.20932007 53.12280273 8.43197632 C53.14213867 9.49287476 53.16147461 10.55377319 53.18139648 11.64682007 C52.68530273 14.49447632 52.68530273 14.49447632 50.95983887 16.14918518 C48.32214643 17.70926779 46.84034019 17.86904588 43.79663086 17.86679077 C42.34492493 17.87613396 42.34492493 17.87613396 40.8638916 17.88566589 C39.30595886 17.87185127 39.30595886 17.87185127 37.71655273 17.85775757 C36.10786316 17.85850533 36.10786316 17.85850533 34.4666748 17.85926819 C32.20050197 17.85692897 29.93432648 17.84720949 27.66821289 17.83065796 C24.19841288 17.80706546 20.72938133 17.81009847 17.25952148 17.81674194 C15.05769398 17.81116509 12.85586972 17.80405516 10.65405273 17.79525757 C9.61543091 17.79616898 8.57680908 17.79708038 7.50671387 17.79801941 C6.53890991 17.7884874 5.57110596 17.77895538 4.57397461 17.76913452 C3.72444214 17.76452713 2.87490967 17.75991974 1.99963379 17.75517273 C-0.53499858 17.46966061 -2.15901034 16.84174287 -4.31469727 15.49447632 C-5.84712896 12.046505 -5.57904342 8.19532249 -5.31469727 4.49447632 C-3.81867136 1.76390918 -3.09378502 0.66090864 0 0 Z " fill="#04C752" transform="translate(786.314697265625,180.50552368164063)"/>
<path d="M0 0 C0.15126231 1.97513667 0.22173766 3.95678135 0.25 5.9375 C0.27578125 7.01902344 0.3015625 8.10054687 0.328125 9.21484375 C0.21984375 10.13394531 0.1115625 11.05304688 0 12 C-3.26907506 14.17938337 -4.19182045 14.24897468 -7.97460938 14.24291992 C-8.98575806 14.24599655 -9.99690674 14.24907318 -11.03869629 14.25224304 C-12.67469788 14.24146477 -12.67469788 14.24146477 -14.34375 14.23046875 C-15.46438843 14.23001053 -16.58502686 14.22955231 -17.73962402 14.2290802 C-20.11011819 14.22605777 -22.48061036 14.21817176 -24.85107422 14.20581055 C-28.48542292 14.18757315 -32.1195166 14.18530074 -35.75390625 14.18554688 C-38.05468971 14.18063093 -40.35547144 14.17480227 -42.65625 14.16796875 C-43.74691772 14.16685593 -44.83758545 14.1657431 -45.96130371 14.16459656 C-46.97245239 14.15821671 -47.98360107 14.15183685 -49.02539062 14.14526367 C-49.9156897 14.14145187 -50.80598877 14.13764008 -51.7232666 14.13371277 C-54 14 -54 14 -57 13 C-58.82199993 7.5340002 -58.25729362 3.19266753 -56 -2 C-49.13185341 -2.1940675 -42.26341922 -2.3713618 -35.39453125 -2.53710938 C-33.05882005 -2.59543735 -30.72320074 -2.65757679 -28.38769531 -2.72363281 C-25.02686293 -2.81802215 -21.66593642 -2.89861131 -18.3046875 -2.9765625 C-16.74341629 -3.02485703 -16.74341629 -3.02485703 -15.15060425 -3.0741272 C-3.31755261 -3.31755261 -3.31755261 -3.31755261 0 0 Z " fill="#00C951" transform="translate(839,242)"/>
<path d="M0 0 C6.92334988 -0.07595711 13.84659263 -0.12856051 20.77026367 -0.16479492 C23.12642431 -0.17989747 25.48255677 -0.20038091 27.83862305 -0.22631836 C31.22191312 -0.26263656 34.60483208 -0.27971167 37.98828125 -0.29296875 C39.57277824 -0.31619453 39.57277824 -0.31619453 41.18928528 -0.33988953 C42.66047066 -0.34022942 42.66047066 -0.34022942 44.16137695 -0.34057617 C45.45710381 -0.35056892 45.45710381 -0.35056892 46.77900696 -0.36076355 C49.49116666 0.07978189 50.36857869 0.82464239 52 3 C52.36328125 5.375 52.36328125 5.375 52.3125 8 C52.30863281 8.86625 52.30476562 9.7325 52.30078125 10.625 C52 13 52 13 50 16 C47.91944885 16.38768005 47.91944885 16.38768005 45.32250977 16.40405273 C43.8657357 16.42307899 43.8657357 16.42307899 42.37953186 16.44248962 C41.32745041 16.43955399 40.27536896 16.43661835 39.19140625 16.43359375 C38.11374496 16.4388356 37.03608368 16.44407745 35.92576599 16.44947815 C33.64347191 16.45591035 31.36114473 16.45454596 29.07885742 16.44604492 C25.57996732 16.43754245 22.08271268 16.46626937 18.58398438 16.49804688 C16.36979216 16.49965905 14.15559704 16.49908105 11.94140625 16.49609375 C10.89134903 16.50732773 9.84129181 16.51856171 8.75941467 16.53013611 C7.7850798 16.52075516 6.81074493 16.51137421 5.80688477 16.50170898 C4.94909927 16.50154282 4.09131378 16.50137665 3.20753479 16.50120544 C1 16 1 16 -0.78089905 14.18348694 C-2.55415319 11.00747657 -2.31417728 8.58162104 -2 5 C-1.37050714 3.31894052 -0.70983633 1.64874334 0 0 Z " fill="#00C951" transform="translate(783,211)"/>
<path d="M0 0 C9.58177895 0.36852996 18.0310992 4.40090798 24.5625 11.4375 C28.12407051 15.85236345 31.13694396 19.91876088 30.875 25.8125 C30 28 30 28 27 30 C22.55453703 30.71593598 19.03411052 30.60697792 15.125 28.3125 C13 26 13 26 11.75 23.5546875 C9.53249212 20.31752198 7.4288296 19.40958246 3.875 17.8125 C-1.90768037 15.18463926 -1.90768037 15.18463926 -3 13 C-3.42535668 8.76279307 -3.68440794 5.16919689 -1.5 1.4375 C-0.7575 0.7259375 -0.7575 0.7259375 0 0 Z " fill="#01CA52" transform="translate(334,181)"/>
<path d="M0 0 C1.73056641 0.02900391 1.73056641 0.02900391 3.49609375 0.05859375 C5.23052734 0.06052734 5.23052734 0.06052734 7 0.0625 C8.45212891 0.27712891 8.45212891 0.27712891 9.93359375 0.49609375 C11.93359375 3.49609375 11.93359375 3.49609375 11.74609375 5.80859375 C9.27752251 13.97386785 3.75474092 21.4834046 -3.62890625 25.93359375 C-9.36622985 28.54146811 -13.830727 30.23628331 -20.06640625 28.49609375 C-22.54717489 26.01532511 -22.41732182 25.05391166 -22.50390625 21.62109375 C-22.3948569 16.8842627 -22.3948569 16.8842627 -20.00390625 14.05859375 C-17.06640625 12.49609375 -17.06640625 12.49609375 -13.50390625 11.05859375 C-9.09377623 9.0539892 -7.20362592 6.51864079 -4.8671875 2.36328125 C-3.06640625 0.49609375 -3.06640625 0.49609375 0 0 Z " fill="#00CB52" transform="translate(353.06640625,227.50390625)"/>
<path d="M0 0 C4.72395478 1.79087241 8.85980212 3.54730212 12.4921875 7.1796875 C12.4921875 7.8396875 12.4921875 8.4996875 12.4921875 9.1796875 C13.0696875 9.3653125 13.6471875 9.5509375 14.2421875 9.7421875 C17.5241236 11.83898001 19.14237576 14.61480009 20.4921875 18.1796875 C20.97146384 21.10274651 20.8487302 23.17454193 20.4921875 26.1796875 C16.47875221 28.85531103 13.21031902 28.99516702 8.4921875 28.1796875 C5.59816253 25.92877919 3.84445093 23.70155925 1.8046875 20.6796875 C-1.17256331 17.46103797 -4.41772383 16.0207827 -8.36328125 14.1953125 C-10.5078125 13.1796875 -10.5078125 13.1796875 -11.5078125 12.1796875 C-11.58040196 9.99329297 -11.59155033 7.80468361 -11.5703125 5.6171875 C-11.56128906 4.41964844 -11.55226563 3.22210938 -11.54296875 1.98828125 C-11.53136719 1.06144531 -11.51976562 0.13460937 -11.5078125 -0.8203125 C-7.78378274 -2.68232738 -3.78060829 -1.23664757 0 0 Z " fill="#00CB51" transform="translate(742.5078125,182.8203125)"/>
<path d="M0 0 C2.73046875 0.37890625 2.73046875 0.37890625 3.73046875 1.37890625 C4.52652758 7.7473769 3.2801265 11.11463386 -0.48828125 16.26953125 C-6.71361552 23.64163763 -14.27018149 28.75674183 -24.08203125 29.62890625 C-26.26953125 29.37890625 -26.26953125 29.37890625 -28.26953125 27.37890625 C-28.46484375 24.33984375 -28.46484375 24.33984375 -28.39453125 20.75390625 C-28.37648438 19.56539062 -28.3584375 18.376875 -28.33984375 17.15234375 C-28.31664062 16.23710937 -28.2934375 15.321875 -28.26953125 14.37890625 C-27.07457031 13.8684375 -27.07457031 13.8684375 -25.85546875 13.34765625 C-18.41821469 10.06416018 -18.41821469 10.06416018 -13.33203125 4.00390625 C-10.08977213 -1.15423326 -5.60205512 -0.29751027 0 0 Z " fill="#00CB51" transform="translate(759.26953125,227.62109375)"/>
<path d="M0 0 C0.99322266 -0.00322266 1.98644531 -0.00644531 3.00976562 -0.00976562 C11.55828701 0.05355676 11.55828701 0.05355676 14.9375 2.3125 C16.31729266 6.45187799 16.77166956 10.47990355 14.92578125 14.53515625 C14.59964844 15.12167969 14.27351563 15.70820313 13.9375 16.3125 C9.8257744 16.33715746 5.71407722 16.35533959 1.60229492 16.36743164 C0.20254772 16.3724708 -1.1971942 16.37930216 -2.59692383 16.38793945 C-4.60495777 16.4000232 -6.61302957 16.40519807 -8.62109375 16.41015625 C-9.83079834 16.41539307 -11.04050293 16.42062988 -12.28686523 16.42602539 C-15.0625 16.3125 -15.0625 16.3125 -16.0625 15.3125 C-16.2664085 13.36080439 -16.3763543 11.39886576 -16.4375 9.4375 C-16.48648438 8.36757812 -16.53546875 7.29765625 -16.5859375 6.1953125 C-16.0625 3.3125 -16.0625 3.3125 -14.23046875 1.44921875 C-9.49250561 -0.25083954 -4.99299194 -0.08131909 0 0 Z " fill="#01CD4E" transform="translate(177.0625,238.6875)"/>
<path d="M0 0 C1.45599609 0.00773438 1.45599609 0.00773438 2.94140625 0.015625 C3.90949219 0.01046875 4.87757813 0.0053125 5.875 0 C8.50390625 0.265625 8.50390625 0.265625 11.50390625 2.265625 C11.8762207 4.57226562 11.8762207 4.57226562 11.8671875 7.421875 C11.86654297 8.44410156 11.86589844 9.46632812 11.86523438 10.51953125 C11.84912109 11.59074219 11.83300781 12.66195312 11.81640625 13.765625 C11.82124023 15.37244141 11.82124023 15.37244141 11.82617188 17.01171875 C11.77077629 24.99875496 11.77077629 24.99875496 9.50390625 27.265625 C6.5 27.49609375 6.5 27.49609375 2.94140625 27.453125 C1.17603516 27.44345703 1.17603516 27.44345703 -0.625 27.43359375 C-3.49609375 27.265625 -3.49609375 27.265625 -4.49609375 26.265625 C-4.74866252 22.29286685 -4.68131826 18.30796325 -4.68359375 14.328125 C-4.69583984 13.20470703 -4.70808594 12.08128906 -4.72070312 10.92382812 C-4.72263672 9.85197266 -4.72457031 8.78011719 -4.7265625 7.67578125 C-4.73067139 6.68715088 -4.73478027 5.69852051 -4.73901367 4.67993164 C-4.39223876 1.23344206 -3.4259067 0.36457223 0 0 Z " fill="#02C852" transform="translate(387.49609375,180.734375)"/>
<path d="M0 0 C1.1446875 0.00386719 2.289375 0.00773438 3.46875 0.01171875 C6.5 0.3125 6.5 0.3125 9.5 2.3125 C10.93963825 5.84615753 10.83499758 9.56052712 10.5 13.3125 C8.3548843 16.17095584 7.18095429 17.19499838 3.625 17.80859375 C2.59375 17.78925781 1.5625 17.76992187 0.5 17.75 C-1.046875 17.74806641 -1.046875 17.74806641 -2.625 17.74609375 C-5.87718603 17.25561461 -7.28750929 16.74467064 -9.5 14.3125 C-9.99609375 11.71875 -9.99609375 11.71875 -9.9375 8.8125 C-9.93621094 7.8534375 -9.93492187 6.894375 -9.93359375 5.90625 C-9.5 3.3125 -9.5 3.3125 -8.37890625 1.48828125 C-5.58249612 -0.26165523 -3.26583334 -0.04781062 0 0 Z " fill="#00CA51" transform="translate(464.5,180.6875)"/>
<path d="M0 0 C1.47057839 0.00031709 2.94118001 0.01164091 4.41162109 0.03173828 C5.18565277 0.03456818 5.95968445 0.03739807 6.75717163 0.04031372 C9.23329016 0.05152325 11.70904909 0.07662875 14.18505859 0.10205078 C15.86213671 0.1120796 17.53922049 0.12120562 19.21630859 0.12939453 C23.33103082 0.15146504 27.44548371 0.18599977 31.56005859 0.22705078 C31.56005859 0.88705078 31.56005859 1.54705078 31.56005859 2.22705078 C20.34005859 2.55705078 9.12005859 2.88705078 -2.43994141 3.22705078 C-2.76994141 14.44705078 -3.09994141 25.66705078 -3.43994141 37.22705078 C-5.89996928 34.76702291 -5.68546145 33.3791124 -5.71783447 30.02038574 C-5.71378601 29.31514771 -5.70973755 28.60990967 -5.70556641 27.88330078 C-5.70747986 27.15840454 -5.70939331 26.4335083 -5.71136475 25.68664551 C-5.71272628 24.15339816 -5.70903205 22.62013928 -5.70068359 21.08691406 C-5.68998318 18.73622819 -5.70057949 16.38630655 -5.71337891 14.03564453 C-5.71205731 12.54736159 -5.7094949 11.05907912 -5.70556641 9.57080078 C-5.70961487 8.86556274 -5.71366333 8.16032471 -5.71783447 7.43371582 C-5.66887314 2.35393896 -5.53827995 0.36555006 0 0 Z " fill="#0DC252" transform="translate(539.43994140625,214.77294921875)"/>
<path d="M0 0 C0.84858582 -0.0033284 1.69717163 -0.0066568 2.57147217 -0.01008606 C4.3703965 -0.01515476 6.16933025 -0.0174944 7.96826172 -0.01733398 C10.7094699 -0.01951147 13.45026979 -0.03764265 16.19140625 -0.05664062 C17.94010279 -0.05957643 19.68880125 -0.06155997 21.4375 -0.0625 C22.25333557 -0.06968552 23.06917114 -0.07687103 23.909729 -0.08427429 C28.49887216 -0.06603023 32.16311415 0.41857745 36.484375 2.16796875 C36.484375 2.49796875 36.484375 2.82796875 36.484375 3.16796875 C20.974375 3.16796875 5.464375 3.16796875 -10.515625 3.16796875 C-10.515625 2.50796875 -10.515625 1.84796875 -10.515625 1.16796875 C-7.23626218 -0.47171266 -3.60433 0.0048681 0 0 Z " fill="#00DD43" transform="translate(624.515625,238.83203125)"/>
<path d="M0 0 C0 0.66 0 1.32 0 2 C0.66 2.33 1.32 2.66 2 3 C-5.20824385 3.14282731 -12.41649663 3.28519715 -19.62475586 3.42724609 C-22.07788295 3.47564278 -24.53100797 3.52414491 -26.98413086 3.57275391 C-30.50634227 3.64252886 -34.02856093 3.7119269 -37.55078125 3.78125 C-39.20089958 3.81406067 -39.20089958 3.81406067 -40.88435364 3.84753418 C-41.90518539 3.86755493 -42.92601715 3.88757568 -43.9777832 3.90820312 C-45.32680473 3.93485046 -45.32680473 3.93485046 -46.70307922 3.96203613 C-48.46852371 3.99121568 -50.23431439 4 -52 4 C-51.67 3.01 -51.34 2.02 -51 1 C-44.05827406 0.85729973 -37.11654168 0.71491542 -30.17480469 0.57275391 C-27.81184745 0.52432466 -25.44889172 0.47582228 -23.0859375 0.42724609 C-19.69531639 0.35755631 -16.30469003 0.288127 -12.9140625 0.21875 C-11.32182358 0.18593933 -11.32182358 0.18593933 -9.69741821 0.15246582 C-8.22611954 0.12243469 -8.22611954 0.12243469 -6.72509766 0.09179688 C-5.85905914 0.07403198 -4.99302063 0.05626709 -4.10073853 0.03796387 C-2.73399027 0.01326443 -1.36697142 0 0 0 Z " fill="#00D74F" transform="translate(834,239)"/>
<path d="M0 0 C0.99 0.66 1.98 1.32 3 2 C-1.52346347 5.40035001 -5.23097708 5.44061319 -10.66015625 5.44140625 C-11.48704453 5.45461411 -12.3139328 5.46782196 -13.1658783 5.48143005 C-15.79812022 5.52219943 -18.43001449 5.54396307 -21.0625 5.5625 C-23.69845012 5.58631665 -26.33407429 5.61446869 -28.96983337 5.65428162 C-30.60689434 5.67856431 -32.2441278 5.69348329 -33.88136292 5.69789124 C-37.71867748 5.75040598 -40.74800234 5.8260485 -44 8 C-43.125 4.125 -43.125 4.125 -42 3 C-38.89914779 2.83958807 -35.81812421 2.74036598 -32.71484375 2.68359375 C-31.78402481 2.66281265 -30.85320587 2.64203156 -29.8941803 2.62062073 C-26.90869818 2.55502069 -23.92312516 2.49619198 -20.9375 2.4375 C-18.91861024 2.3943247 -16.8997298 2.35071075 -14.88085938 2.30664062 C-9.92066703 2.19932871 -4.96038291 2.09809112 0 2 C0 1.34 0 0.68 0 0 Z " fill="#00D950" transform="translate(103,237)"/>
<path d="M0 0 C1.76923828 0.04060547 1.76923828 0.04060547 3.57421875 0.08203125 C4.47785156 0.11683594 5.38148438 0.15164062 6.3125 0.1875 C6.3125 1.1775 6.3125 2.1675 6.3125 3.1875 C5.45785156 3.17589844 4.60320312 3.16429687 3.72265625 3.15234375 C2.06556641 3.13880859 2.06556641 3.13880859 0.375 3.125 C-1.27822266 3.10759766 -1.27822266 3.10759766 -2.96484375 3.08984375 C-5.60197634 2.87487429 -5.60197634 2.87487429 -6.6875 4.1875 C-6.75955511 5.87358966 -6.77136068 7.56250659 -6.75 9.25 C-6.729375 10.879375 -6.70875 12.50875 -6.6875 14.1875 C-2.7275 14.5175 1.2325 14.8475 5.3125 15.1875 C5.3125 15.8475 5.3125 16.5075 5.3125 17.1875 C3.5632786 17.26892927 1.81295458 17.32688541 0.0625 17.375 C-0.91203125 17.40980469 -1.8865625 17.44460937 -2.890625 17.48046875 C-6.16719399 17.13725272 -7.47146667 16.62150382 -9.6875 14.1875 C-10.18359375 11.59375 -10.18359375 11.59375 -10.125 8.6875 C-10.12371094 7.7284375 -10.12242187 6.769375 -10.12109375 5.78125 C-9.6875 3.1875 -9.6875 3.1875 -8.578125 1.35546875 C-5.72589508 -0.40654932 -3.310534 -0.09833269 0 0 Z " fill="#0CCE54" transform="translate(464.6875,180.8125)"/>
<path d="M0 0 C0.66 0.33 1.32 0.66 2 1 C2.02887236 4.81248426 2.04675492 8.6249407 2.0625 12.4375 C2.07087891 13.52611328 2.07925781 14.61472656 2.08789062 15.73632812 C2.09111328 16.77080078 2.09433594 17.80527344 2.09765625 18.87109375 C2.10289307 19.82943115 2.10812988 20.78776855 2.11352539 21.77514648 C2 24 2 24 1 25 C-1.01964199 25.07244053 -3.04167124 25.08377188 -5.0625 25.0625 C-6.16722656 25.05347656 -7.27195312 25.04445312 -8.41015625 25.03515625 C-9.69212891 25.01775391 -9.69212891 25.01775391 -11 25 C-11 24.67 -11 24.34 -11 24 C-7.7 23.67 -4.4 23.34 -1 23 C-0.67 15.41 -0.34 7.82 0 0 Z " fill="#00DD52" transform="translate(548,230)"/>
<path d="M0 0 C0.99 0 1.98 0 3 0 C3 7.59 3 15.18 3 23 C2.01 23.33 1.02 23.66 0 24 C0 16.08 0 8.16 0 0 Z " fill="#00D550" transform="translate(396,183)"/>
<path d="M0 0 C0.99 0 1.98 0 3 0 C4.38226016 2.76452033 4.09525387 5.0461363 4.0625 8.125 C4.05347656 9.22070312 4.04445312 10.31640625 4.03515625 11.4453125 C4.02355469 12.28835937 4.01195312 13.13140625 4 14 C3.01 14 2.02 14 1 14 C1.01160156 13.15695313 1.02320313 12.31390625 1.03515625 11.4453125 C1.04417969 10.34960938 1.05320313 9.25390625 1.0625 8.125 C1.07410156 7.03445312 1.08570313 5.94390625 1.09765625 4.8203125 C1.19744303 2.04822454 1.19744303 2.04822454 0 0 Z " fill="#01D54D" transform="translate(236,241)"/>
<path d="M0 0 C0.33 0 0.66 0 1 0 C1.04254356 1.99954746 1.04080783 4.00041636 1 6 C0 7 0 7 -3.59765625 7.09765625 C-5.08596867 7.0909822 -6.57426432 7.07902183 -8.0625 7.0625 C-8.82111328 7.05798828 -9.57972656 7.05347656 -10.36132812 7.04882812 C-12.24091871 7.0370068 -14.12046899 7.01907078 -16 7 C-16 6.34 -16 5.68 -16 5 C-11.38 5 -6.76 5 -2 5 C-1.34 3.35 -0.68 1.7 0 0 Z " fill="#00E056" transform="translate(446,248)"/>
<path d="M0 0 C4.95 0.33 9.9 0.66 15 1 C14.67 1.66 14.34 2.32 14 3 C12.04233719 3.08082094 10.08373272 3.13910778 8.125 3.1875 C6.48917969 3.23970703 6.48917969 3.23970703 4.8203125 3.29296875 C3.88960937 3.19628906 2.95890625 3.09960938 2 3 C1.34 2.01 0.68 1.02 0 0 Z " fill="#08D651" transform="translate(617,234)"/>
<path d="M0 0 C2.0625 0.4375 2.0625 0.4375 4 1 C1.56513393 3.43486607 0.42574894 3.44209813 -2.9375 3.8125 C-3.81277344 3.92207031 -4.68804687 4.03164063 -5.58984375 4.14453125 C-8 4 -8 4 -9.81640625 2.51171875 C-10.40228516 1.76341797 -10.40228516 1.76341797 -11 1 C-10.28972656 1.01160156 -9.57945312 1.02320313 -8.84765625 1.03515625 C-7.92855469 1.04417969 -7.00945312 1.05320313 -6.0625 1.0625 C-4.68771484 1.07990234 -4.68771484 1.07990234 -3.28515625 1.09765625 C-1.03406673 1.25949049 -1.03406673 1.25949049 0 0 Z " fill="#00DC52" transform="translate(255,252)"/>
<path d="M0 0 C0.33 0.99 0.66 1.98 1 3 C-0.85625 2.9690625 -0.85625 2.9690625 -2.75 2.9375 C-5.16851715 2.924681 -7.02401643 3.00632011 -9.375 3.625 C-10.179375 3.810625 -10.179375 3.810625 -11 4 C-11.66 3.34 -12.32 2.68 -13 2 C-8.46298506 0.54815522 -4.81938524 -0.23509196 0 0 Z " fill="#01D64C" transform="translate(725,182)"/>
<path d="M0 0 C0.66 0 1.32 0 2 0 C2.69937202 1.4317616 3.38412718 2.87067032 4.0625 4.3125 C4.63677734 5.51326172 4.63677734 5.51326172 5.22265625 6.73828125 C6 9 6 9 5 12 C2.54792359 9.54792359 1.39341806 7.16685923 0 4 C0 2.68 0 1.36 0 0 Z " fill="#04D157" transform="translate(296,230)"/>
<path d="M0 0 C0 0.33 0 0.66 0 1 C-4 2.33333333 -8 3.66666667 -12 5 C-11.875 3.125 -11.875 3.125 -11 1 C-6.9875739 -0.91502155 -4.25648179 -1.25190641 0 0 Z " fill="#02D94D" transform="translate(324,183)"/>
<path d="M0 0 C0.598125 0.763125 1.19625 1.52625 1.8125 2.3125 C3.46959332 4.3483575 5.10297674 6.1978279 7 8 C6.01 8.495 6.01 8.495 5 9 C2.5 7.3125 2.5 7.3125 0 5 C-0.3125 2.25 -0.3125 2.25 0 0 Z " fill="#02D74C" transform="translate(347,202)"/>
<path d="M0 0 C2.0625 0.4375 2.0625 0.4375 4 1 C2.38405168 3.04119788 0.7143618 5.04072937 -1 7 C-1.66 7 -2.32 7 -3 7 C-1.125 1.125 -1.125 1.125 0 0 Z " fill="#01D349" transform="translate(637,183)"/>
<path d="M0 0 C2.03833424 1.2739589 4.03852126 2.61061923 6 4 C6 4.66 6 5.32 6 6 C3.11424181 5.60196439 2.17810487 5.20990931 0.25 2.9375 C-0.1625 2.298125 -0.575 1.65875 -1 1 C-0.67 0.67 -0.34 0.34 0 0 Z " fill="#02D34C" transform="translate(224,232)"/>
<path d="M0 0 C0.33 0.66 0.66 1.32 1 2 C3.01669827 3.13350534 3.01669827 3.13350534 5 4 C4.67 5.32 4.34 6.64 4 8 C0 3.375 0 3.375 0 0 Z " fill="#02D459" transform="translate(110,186)"/>
</svg>
